<svg width="70" height="50" fill="none" xmlns="http://www.w3.org/2000/svg"><path d="M35 13.112c-6.213 0-11.269 5.316-11.269 11.85S28.787 36.812 35 36.812s11.269-5.316 11.269-11.85S41.213 13.112 35 13.112zm0-1.979c.39 0 .706-.333.706-.743V2.57c0-.41-.316-.743-.706-.743-.39 0-.706.332-.706.742v7.821c0 .41.317.743.706.743zm0 27.657c-.39 0-.706.332-.706.742v7.821c0 .41.317.742.706.742.39 0 .706-.332.706-.742v-7.821c0-.41-.316-.742-.706-.742zM24.704 15.183a.687.687 0 00.499.218c.18 0 .361-.073.5-.218a.769.769 0 000-1.05l-5.26-5.53a.681.681 0 00-.999 0 .769.769 0 000 1.05l5.26 5.53zM45.298 34.74a.681.681 0 00-.998 0 .769.769 0 000 1.05l5.259 5.53a.687.687 0 00.5.217c.18 0 .36-.073.498-.217a.769.769 0 000-1.05l-5.26-5.53zm-.5-19.34a.69.69 0 00.5-.217l5.258-5.53a.769.769 0 000-1.05.681.681 0 00-.998 0l-5.26 5.53a.769.769 0 000 1.05.69.69 0 00.5.218zM24.704 34.74l-5.26 5.53a.769.769 0 000 1.05.687.687 0 00.5.217c.18 0 .36-.073.499-.217l5.26-5.53a.769.769 0 000-1.05.681.681 0 00-1 0zm31.59-10.521h-7.437c-.39 0-.706.332-.706.742s.316.742.706.742h7.437c.39 0 .706-.332.706-.742s-.316-.742-.706-.742zm-34.444.742c0-.41-.316-.742-.706-.742h-7.438c-.39 0-.706.332-.706.742s.316.742.706.742h7.437c.39 0 .707-.331.707-.742z" fill="#4F4F4F"/></svg>